#
#
#

mtllib rock.mtl


#
#  Mesh
#
g  Mesh


#
#  Mesh_Rock
#
usemtl  Mesh_Rock

v 0.109083 1.049846 0.244064
v -0.872071 0.639545 -0.064167
v -0.498765 0.447331 0.788468
v -0.754008 -0.586305 0.440938
v 0.839770 0.583886 0.156257
v 0.999364 -0.051050 0.302063
v 0.599984 0.250907 -0.818317
v 0.206692 0.770367 -0.659066
v -0.663647 -0.181383 -0.846795
v 0.024512 -0.353009 0.983546
v 0.245339 0.280066 0.965363
v 0.310522 -0.227589 -0.960383
v 0.936843 -0.416159 -0.140331
v 0.482814 -0.837392 -0.397797
v -0.109083 -1.049846 -0.244064
v 0.335457 -0.719182 0.663928
v -0.999364 0.051051 -0.302063
vn -0.456023 0.804287 0.381005
vn -0.905719 0.083986 0.415476
vn 0.941808 0.170199 -0.289879
vn -0.063223 0.248468 -0.966575
vn -0.535474 -0.147376 0.831594
vn 0.601104 -0.187346 0.776901
vn 0.694425 -0.372045 -0.615919
vn -0.119962 -0.616576 -0.778102
vn -0.726832 -0.638956 -0.251896
vn -0.193781 -0.887499 0.418083
vn 0.616233 -0.768751 0.171111
vn 0.368852 -0.916770 0.153236
vn 0.048082 -0.669925 -0.740871
vn 0.752292 -0.556370 0.352858
vn 0.599701 -0.172774 0.781350
vn -0.220199 -0.740828 0.634576
vn -0.782236 -0.576470 -0.236196
vn -0.093480 0.334872 -0.937615
vn 0.737302 -0.260980 -0.623117
vn 0.940412 0.184778 -0.285452
vn -0.208648 0.100722 0.972790
vn -0.932325 0.057293 0.357055
vn -0.698530 0.392856 -0.598097
vn -0.452957 0.552243 -0.699898
vn 0.676900 0.629430 -0.381608
vn 0.701118 0.322254 0.636071
vn -0.020606 0.681634 0.731403
vn -0.281733 0.907590 -0.311298
vn 0.481587 0.643124 0.595370
vn 0.508843 0.836383 -0.203819
vt 0.727273 0.000000
vt 0.805311 0.137153
vt 0.659399 0.117562
vt 0.681408 0.288606
vt 0.318798 0.157461
vt 0.363637 0.236191
vt 0.181819 0.236191
vt 0.136980 0.157461
vt 0.014940 0.289045
vt 0.545455 0.236191
vt 0.500617 0.157461
vt 0.135748 0.314921
vt 0.317566 0.314921
vt 0.272728 0.393651
vt 0.067460 0.431766
vt 0.893102 0.289045
vt 0.818182 0.393651
vt 0.499384 0.314921
vt 0.648662 0.412450
vt 0.409092 0.393651
vt 0.477581 0.432483
vt 0.136365 0.393651
vt 0.818182 0.236191
vt 0.863935 0.116845
vt 1.000000 0.157461
vt 0.522006 0.040616
vt 0.613329 0.117562
vt 0.932126 0.039899
vt 0.363637 0.078731
vt 0.194117 0.059932
f 1/1/1 2/2/1 3/3/1
f 3/3/2 2/2/2 4/4/2
f 5/5/3 6/6/3 7/7/3
f 8/8/4 7/7/4 9/9/4
f 3/3/5 4/4/5 10/10/5
f 11/11/6 10/10/6 6/6/6
f 12/12/7 13/13/7 14/14/7
f 9/9/8 12/12/8 15/15/8
f 4/4/9 9/16/9 15/17/9
f 16/18/10 4/4/10 15/19/10
f 13/13/11 16/18/11 14/20/11
f 14/20/12 16/18/12 15/21/12
f 15/15/13 12/12/13 14/22/13
f 6/6/14 16/18/14 13/13/14
f 6/6/15 10/10/15 16/18/15
f 10/10/16 4/4/16 16/18/16
f 17/23/17 9/16/17 4/4/17
f 9/9/18 7/7/18 12/12/18
f 7/7/19 13/13/19 12/12/19
f 7/7/20 6/6/20 13/13/20
f 11/11/21 3/3/21 10/10/21
f 4/4/22 2/2/22 17/23/22
f 17/23/23 2/24/23 9/16/23
f 2/24/24 8/25/24 9/16/24
f 8/8/25 5/5/25 7/7/25
f 5/5/26 11/11/26 6/6/26
f 1/26/27 3/27/27 11/11/27
f 1/28/28 8/25/28 2/24/28
f 5/5/29 1/29/29 11/11/29
f 1/30/30 5/5/30 8/8/30
